<?xml version="1.0" encoding="UTF-8" standalone="no"?>
<!-- Created with Inkscape (http://www.inkscape.org/) -->

<!-- The logo taken from wikipedia (https://upload.wikimedia.org/wikipedia/commons/c/c4/NixOS_logo.svg), it's CC-BY -->

<svg
   width="3840"
   height="2160"
   viewBox="0 0 1016 571.5"
   version="1.1"
   id="svg1"
   inkscape:version="1.3.2 (091e20ef0f, 2023-11-25)"
   sodipodi:docname="wallpaper.svg"
   xml:space="preserve"
   xmlns:inkscape="http://www.inkscape.org/namespaces/inkscape"
   xmlns:sodipodi="http://sodipodi.sourceforge.net/DTD/sodipodi-0.dtd"
   xmlns="http://www.w3.org/2000/svg"
   xmlns:svg="http://www.w3.org/2000/svg"><sodipodi:namedview
     id="namedview1"
     pagecolor="#1e1e2e"
     bordercolor="#cdd6f4"
     borderopacity="1"
     inkscape:showpageshadow="false"
     inkscape:pageopacity="0.0"
     inkscape:pagecheckerboard="0"
     inkscape:deskcolor="#1e1e2e"
     inkscape:document-units="mm"
     borderlayer="true"
     inkscape:zoom="4"
     inkscape:cx="142.375"
     inkscape:cy="134.625"
     inkscape:window-width="3836"
     inkscape:window-height="2156"
     inkscape:window-x="0"
     inkscape:window-y="0"
     inkscape:window-maximized="0"
     inkscape:current-layer="layer1" /><defs
     id="defs1" /><g
     inkscape:label="Layer 1"
     inkscape:groupmode="layer"
     id="layer1"><rect
       style="fill:#1e1e2e;stroke:none;stroke-width:2"
       id="rect14"
       width="1016"
       height="571.5"
       x="0"
       y="0" /><rect
       style="display:none;fill:#313244;stroke:none;stroke-width:0.128541"
       id="rect1-9"
       width="627.888"
       height="134.89085"
       x="388.112"
       y="436.60913" /><rect
       style="display:none;fill:#45475a;stroke:none;stroke-width:0.10106"
       id="rect1-9-0"
       width="388.112"
       height="134.89085"
       x="0"
       y="436.60913" /><rect
       style="display:none;fill:#585b70;stroke:none;stroke-width:0.0491027"
       id="rect1-9-0-2"
       width="91.624062"
       height="134.89085"
       x="-331.47726"
       y="436.60913"
       transform="scale(-1,1)" /><rect
       style="display:none;fill:#45475a;stroke:none;stroke-width:0.207984"
       id="rect1-5"
       width="1016"
       height="134.87404"
       x="-1.2031856e-13"
       y="218.31297" /><rect
       style="display:none;fill:#45475a;stroke:none;stroke-width:0.207984"
       id="rect1-5-5"
       width="1016"
       height="134.87404"
       x="-502.61847"
       y="515.45911"
       transform="rotate(-60)" /><rect
       style="display:none;fill:#45475a;stroke:none;stroke-width:0.207984"
       id="rect1-5-5-2"
       width="1016"
       height="134.87404"
       x="-1478.6069"
       y="94.610504"
       transform="rotate(-120)" /><rect
       style="display:none;fill:#45475a;stroke:none;stroke-width:0.207984"
       id="rect1-5-5-2-7"
       width="1016"
       height="134.87404"
       x="-540.31451"
       y="364.65427"
       transform="rotate(-120)" /><path
       style="color:#000000;clip-rule:nonzero;display:inline;overflow:visible;visibility:visible;isolation:auto;mix-blend-mode:normal;color-interpolation:sRGB;color-interpolation-filters:linearRGB;solid-color:#000000;solid-opacity:1;fill:#5277c3;fill-opacity:1;fill-rule:evenodd;stroke:none;stroke-width:0.932309;stroke-linecap:butt;stroke-linejoin:round;stroke-miterlimit:4;stroke-dasharray:none;stroke-dashoffset:0;stroke-opacity:1;color-rendering:auto;image-rendering:auto;shape-rendering:auto;text-rendering:auto;enable-background:accumulate"
       d="m 477.61082,287.41829 37.97505,65.78218 -17.4519,0.16371 -10.13843,-17.67321 -10.21078,17.57877 -8.67121,-0.003 -4.44116,-7.67277 14.54727,-25.01391 -10.32671,-17.97044 z"
       id="path4861"
       inkscape:connector-curvature="0"
       sodipodi:nodetypes="cccccccccc" /><path
       style="color:#000000;clip-rule:nonzero;display:inline;overflow:visible;visibility:visible;isolation:auto;mix-blend-mode:normal;color-interpolation:sRGB;color-interpolation-filters:linearRGB;solid-color:#000000;solid-opacity:1;fill:#a6e3a1;fill-opacity:1;fill-rule:evenodd;stroke:none;stroke-width:0.932309;stroke-linecap:butt;stroke-linejoin:round;stroke-miterlimit:4;stroke-dasharray:none;stroke-dashoffset:0;stroke-opacity:1;color-rendering:auto;image-rendering:auto;shape-rendering:auto;text-rendering:auto;enable-background:accumulate"
       d="m 491.3175,260.32191 -37.9815,65.77846 -8.86774,-15.03193 10.23625,-17.61675 -20.32906,-0.0534 -4.33256,-7.51124 4.42423,-7.68253 28.9363,0.0913 10.39951,-17.92839 z"
       id="use4863"
       inkscape:connector-curvature="0"
       sodipodi:nodetypes="cccccccccc" /><path
       style="color:#000000;clip-rule:nonzero;display:inline;overflow:visible;visibility:visible;isolation:auto;mix-blend-mode:normal;color-interpolation:sRGB;color-interpolation-filters:linearRGB;solid-color:#000000;solid-opacity:1;fill:#a6e3a1;fill-opacity:1;fill-rule:evenodd;stroke:none;stroke-width:0.932309;stroke-linecap:butt;stroke-linejoin:round;stroke-miterlimit:4;stroke-dasharray:none;stroke-dashoffset:0;stroke-opacity:1;color-rendering:auto;image-rendering:auto;shape-rendering:auto;text-rendering:auto;enable-background:accumulate"
       d="m 494.23131,312.90422 75.95656,0.004 -8.58417,15.19564 -20.37467,-0.0565 10.11827,17.63217 -4.33865,7.50772 -8.86539,0.01 -14.38904,-25.10524 -20.72621,-0.0421 z"
       id="use4865"
       inkscape:connector-curvature="0"
       sodipodi:nodetypes="cccccccccc" /><path
       style="color:#000000;clip-rule:nonzero;display:inline;overflow:visible;visibility:visible;isolation:auto;mix-blend-mode:normal;color-interpolation:sRGB;color-interpolation-filters:linearRGB;solid-color:#000000;solid-opacity:1;fill:#a6e3a1;fill-opacity:1;fill-rule:evenodd;stroke:none;stroke-width:0.932309;stroke-linecap:butt;stroke-linejoin:round;stroke-miterlimit:4;stroke-dasharray:none;stroke-dashoffset:0;stroke-opacity:1;color-rendering:auto;image-rendering:auto;shape-rendering:auto;text-rendering:auto;enable-background:accumulate"
       d="m 538.44071,284.08171 -37.97506,-65.78219 17.45191,-0.16371 10.13842,17.67322 10.21078,-17.57878 8.67121,0.003 4.44117,7.67278 -14.54727,25.01391 10.3267,17.97043 z"
       id="use4867"
       inkscape:connector-curvature="0"
       sodipodi:nodetypes="cccccccccc" /><path
       sodipodi:nodetypes="cccccccccc"
       inkscape:connector-curvature="0"
       id="path4873"
       d="m 477.61082,287.41829 37.97505,65.78218 -17.4519,0.16371 -10.13843,-17.67321 -10.21078,17.57877 -8.67121,-0.003 -4.44116,-7.67277 14.54727,-25.01391 -10.32671,-17.97044 z"
       style="color:#000000;clip-rule:nonzero;display:inline;overflow:visible;visibility:visible;isolation:auto;mix-blend-mode:normal;color-interpolation:sRGB;color-interpolation-filters:linearRGB;solid-color:#000000;solid-opacity:1;fill:#a6e3a1;fill-opacity:1;fill-rule:evenodd;stroke:none;stroke-width:0.932309;stroke-linecap:butt;stroke-linejoin:round;stroke-miterlimit:4;stroke-dasharray:none;stroke-dashoffset:0;stroke-opacity:1;color-rendering:auto;image-rendering:auto;shape-rendering:auto;text-rendering:auto;enable-background:accumulate" /><path
       sodipodi:nodetypes="cccccccccc"
       inkscape:connector-curvature="0"
       id="use4875"
       d="m 521.7192,258.42953 -75.95656,-0.004 8.58416,-15.19565 20.37468,0.0565 -10.11827,-17.63219 4.33864,-7.50773 8.86539,-0.01 14.38904,25.10526 20.72621,0.042 z"
       style="color:#000000;clip-rule:nonzero;display:inline;overflow:visible;visibility:visible;isolation:auto;mix-blend-mode:normal;color-interpolation:sRGB;color-interpolation-filters:linearRGB;solid-color:#000000;solid-opacity:1;fill:#a6e3a1;fill-opacity:1;fill-rule:evenodd;stroke:none;stroke-width:0.932309;stroke-linecap:butt;stroke-linejoin:round;stroke-miterlimit:4;stroke-dasharray:none;stroke-dashoffset:0;stroke-opacity:1;color-rendering:auto;image-rendering:auto;shape-rendering:auto;text-rendering:auto;enable-background:accumulate" /><path
       sodipodi:nodetypes="cccccccccc"
       inkscape:connector-curvature="0"
       id="use4877"
       d="m 524.6825,311.16407 37.98151,-65.77844 8.86774,15.03193 -10.23625,17.61676 20.32905,0.0534 4.33257,7.51124 -4.42423,7.68256 -28.93631,-0.0914 -10.3995,17.92842 z"
       style="color:#000000;clip-rule:nonzero;display:inline;overflow:visible;visibility:visible;isolation:auto;mix-blend-mode:normal;color-interpolation:sRGB;color-interpolation-filters:linearRGB;solid-color:#000000;solid-opacity:1;fill:#a6e3a1;fill-opacity:1;fill-rule:evenodd;stroke:none;stroke-width:0.932309;stroke-linecap:butt;stroke-linejoin:round;stroke-miterlimit:4;stroke-dasharray:none;stroke-dashoffset:0;stroke-opacity:1;color-rendering:auto;image-rendering:auto;shape-rendering:auto;text-rendering:auto;enable-background:accumulate" /><path
       style="fill:none;stroke:#a6e3a1;stroke-width:4"
       d="m 0,571.49999 134.89086,-134.89088 208.23365,2e-5"
       id="path12"
       sodipodi:nodetypes="ccc" /><path
       style="fill:none;stroke:#a6e3a1;stroke-width:4"
       d="m 13.367933,622.96875 134.890857,-134.89088 221.65452,0"
       id="path12-7"
       sodipodi:nodetypes="ccc" /><circle
       style="fill:#1e1e2e;stroke:#a6e3a1;stroke-width:4"
       id="path13"
       cx="343.12451"
       cy="436.60913"
       r="6" /><circle
       style="fill:#1e1e2e;stroke:#a6e3a1;stroke-width:4"
       id="path13-3"
       cx="369.9133"
       cy="488.07788"
       r="6" /><path
       style="fill:none;stroke:#a6e3a1;stroke-width:4"
       d="M 1014.5858,1.4142135 879.69493,136.30509 l -208.23365,-2e-5"
       id="path12-5"
       sodipodi:nodetypes="ccc" /><path
       style="fill:none;stroke:#a6e3a1;stroke-width:4"
       d="M 1001.2179,-50.054547 866.327,84.836333 H 644.67248"
       id="path12-7-3"
       sodipodi:nodetypes="ccc" /><circle
       style="fill:#1e1e2e;stroke:#a6e3a1;stroke-width:4"
       id="path13-5"
       cx="-671.46124"
       cy="-136.30507"
       r="6"
       transform="scale(-1)" /><circle
       style="fill:#1e1e2e;stroke:#a6e3a1;stroke-width:4"
       id="path13-3-6"
       cx="-644.67249"
       cy="-84.836319"
       r="6"
       transform="scale(-1)" /><rect
       style="display:none;fill:#a6e3a1;fill-opacity:1;stroke-width:2.64583"
       id="rect1"
       width="66.964798"
       height="66.964798"
       x="-12.510412"
       y="-12.426957" /><path
       style="display:inline;fill:#a6e3a1;fill-opacity:1;stroke-width:2.64583"
       d="M -12.510412,54.537842 V -12.426957 H 54.454382 Z"
       id="path1" /><path
       d="m 15.142503,8.6225005 c -0.127,0 -0.254,0.059267 -0.3302,0.1608667 -1.032934,1.3208008 -1.769534,2.9548678 -2.260601,4.3010688 -0.143934,0.397933 -0.270934,0.770467 -0.372534,1.109133 -0.1016,-0.338666 -0.2286,-0.7112 -0.372533,-1.109133 -0.491067,-1.346201 -1.227667,-2.980268 -2.2606012,-4.3010688 -0.0762,-0.1016 -0.2032,-0.1608667 -0.3302001,-0.1608667 -0.2370667,0 -0.4233335,0.1947334 -0.4233335,0.4233335 0,0.093133 0.033867,0.1862667 0.093133,0.2624667 0.948267,1.2192003 1.6425344,2.7601343 2.1251344,4.0640013 0.474133,1.303868 0.7112,2.336801 0.753533,2.531535 0.04233,0.194733 0.211667,0.338666 0.414867,0.338666 0.2032,0 0.372534,-0.143933 0.414867,-0.338666 0.04233,-0.194734 0.2794,-1.227667 0.753534,-2.531535 0.4826,-1.303867 1.176867,-2.844801 2.125134,-4.0640013 0.05927,-0.0762 0.09313,-0.1693334 0.09313,-0.2624667 0,-0.2286001 -0.186267,-0.4233335 -0.423333,-0.4233335 z"
       id="text1"
       style="font-size:8.46667px;font-family:nasin-nanpa;-inkscape-font-specification:nasin-nanpa;fill:#1e1e2e;stroke-width:2.64583"
       aria-label="suli"
       inkscape:label="suli-device-identifier" /></g></svg>
